# Alias OBJ Model File
# Exported from SketchUp, (c) 2000-2012 Trimble Navigation Limited
# File units = meters

mtllib box.mtl

g Mesh1 Model

usemtl Carpet_Berber_Pattern_Gray
v 1.32913 1.09 1.24606
vt 2.04481 1.28235
vn 0 0 1
v -1.31087 -1.16 1.24606
vt -2.01672 -1.36471
v 1.32913 -1.16 1.24606
vt 2.04481 -1.36471
f 1/1/1 2/2/1 3/3/1

v -1.31087 1.09 1.24606
vt -2.01672 1.28235
f 2/2/1 1/1/1 4/4/1

vt 2.04481 -1.46595
vn 0 1 -0
v -1.31087 1.09 -1.26394
vt -2.01672 1.48699
vt -2.01672 -1.46595
f 1/5/2 5/6/2 4/7/2

v 1.32913 1.09 -1.26394
vt 2.04481 1.48699
f 5/6/2 1/5/2 6/8/2

vt -1.91702 1.28235
vn 1 0 -0
v 1.32913 -1.16 -1.26394
vt 1.94452 -1.36471
vt 1.94452 1.28235
f 1/9/3 7/10/3 6/11/3

vt -1.91702 -1.36471
f 7/10/3 1/9/3 3/12/3

vt 2.01672 -1.46595
vn 0 -1 -0
vt -2.04481 1.48699
vt -2.04481 -1.46595
f 2/13/4 7/14/4 3/15/4

v -1.31087 -1.16 -1.26394
vt 2.01672 1.48699
f 7/14/4 2/13/4 8/16/4

vt 1.91702 -1.36471
vn -1 0 -0
vt -1.94452 1.28235
vt -1.94452 -1.36471
f 2/17/5 5/18/5 8/19/5

vt 1.91702 1.28235
f 5/18/5 2/17/5 4/20/5

vt 2.01672 1.28235
vn 0 0 -1
vt -2.04481 -1.36471
vt 2.01672 -1.36471
f 5/21/6 7/22/6 8/23/6

vt -2.04481 1.28235
f 7/22/6 5/21/6 6/24/6

