# Alias OBJ Model File
# Exported from SketchUp, (c) 2000-2012 Trimble Navigation Limited
# File units = millimeters

mtllib plate2.mtl

g Mesh1 Model

usemtl Carpet_Berber_Multi
v 1369.14 0 -5134.47
vt -4.489 16.8343
vn 0 -1 -0
v -5459.86 0 468.529
vt 17.9012 -1.53616
v -5459.86 0 -5134.47
vt 17.9012 16.8343
f 1/1/1 2/2/1 3/3/1

v 1369.14 0 468.529
vt -4.489 -1.53616
f 2/2/1 1/1/1 4/4/1

v 1369.14 715.568 -1935.61
vt 6.34626 2.34613
vn 1 0 -0
vt -1.53616 0
vt 16.8343 0
f 5/5/2 4/6/2 1/7/2

v 1369.14 2919.5 468.529
vt -1.53616 9.57213
f 4/6/2 5/5/2 6/8/2

v 1369.14 2097.57 -1935.61
vt 6.34626 6.87727
f 7/9/2 6/8/2 5/5/2

v 1369.14 2919.5 -5134.47
vt 16.8343 9.57213
f 6/8/2 7/9/2 8/10/2

v 1369.14 2097.57 -3511.61
vt 11.5135 6.87727
f 8/10/2 7/9/2 9/11/2

v 3704.14 2097.57 -1935.61
vt 12.1447 6.34626
vn 0 1 -0
vt 4.489 11.5135
vt 4.489 6.34626
f 10/12/3 9/13/3 7/14/3

v 3704.14 2097.57 -3511.61
vt 12.1447 11.5135
f 9/13/3 10/12/3 11/15/3

v 3704.14 715.568 -3511.61
vt 11.5135 2.34613
f 10/9/2 12/16/2 11/11/2

v 3704.14 715.568 -1935.61
f 12/16/2 10/9/2 13/5/2

vt 12.1447 6.87727
vn 0 0 1
vt 4.489 2.34613
vt 12.1447 2.34613
f 10/17/4 5/18/4 13/19/4

vt 4.489 6.87727
f 5/18/4 10/17/4 7/20/4

vt -4.489 6.34626
vt -12.1447 11.5135
vt -12.1447 6.34626
f 5/21/1 12/22/1 13/23/1

v 1369.14 715.568 -3511.61
vt -4.489 11.5135
f 12/22/1 5/21/1 14/24/1

f 5/5/2 1/7/2 14/16/2

f 14/16/2 1/7/2 9/11/2

f 8/10/2 9/11/2 1/7/2

vt -4.489 0
vn 0 0 -1
v -5459.86 2919.5 -5134.47
vt 17.9012 9.57213
vt -4.489 9.57213
f 1/25/5 15/26/5 8/27/5

vt 17.9012 0
f 15/26/5 1/25/5 3/28/5

vt 1.53616 0
vn -1 0 -0
vt -16.8343 9.57213
vt -16.8343 0
f 2/29/6 15/30/6 3/31/6

v -5459.86 2919.5 468.529
vt 1.53616 9.57213
f 15/30/6 2/29/6 16/32/6

vt -17.9012 0
v -5028.82 1120.25 468.529
vt -16.4879 3.67295
vt -17.9012 9.57213
f 2/33/4 17/34/4 16/35/4

v -4918.13 853.02 468.529
vt -16.125 2.79679
f 17/34/4 2/33/4 18/36/4

v -4742.05 623.546 468.529
vt -15.5477 2.04441
f 18/36/4 2/33/4 19/37/4

v -4512.58 447.464 468.529
vt -14.7953 1.4671
f 19/37/4 2/33/4 20/38/4

v -4245.35 336.774 468.529
vt -13.9192 1.10418
f 20/38/4 2/33/4 21/39/4

v -3958.58 299.02 468.529
vt -12.9789 0.980394
f 21/39/4 2/33/4 22/40/4

v -719.61 490.167 468.529
vt -2.35938 1.6071
f 2/33/4 23/41/4 22/40/4

vt 4.489 0
f 4/42/4 23/41/4 2/33/4

vt 4.489 9.57213
f 23/41/4 4/42/4 6/43/4

v -719.61 1835.67 468.529
vt -2.35938 6.01858
f 23/41/4 6/43/4 24/44/4

v -2315.61 1835.67 468.529
vt -7.59216 6.01858
f 24/44/4 6/43/4 25/45/4

v -2999.02 1961.02 468.529
vt -9.83286 6.42957
f 25/45/4 6/43/4 26/46/4

v -3175.1 2190.49 468.529
vt -10.4102 7.18195
f 26/46/4 6/43/4 27/47/4

v -3404.58 2366.58 468.529
vt -11.1625 7.75927
f 27/47/4 6/43/4 28/48/4

v -3671.81 2477.27 468.529
vt -12.0387 8.12218
f 28/48/4 6/43/4 29/49/4

v -3958.58 2515.02 468.529
vt -12.9789 8.24597
f 29/49/4 6/43/4 30/50/4

f 16/35/4 30/50/4 6/43/4

v -4245.35 2477.27 468.529
vt -13.9192 8.12218
f 16/35/4 31/51/4 30/50/4

v -4512.58 2366.58 468.529
vt -14.7953 7.75927
f 16/35/4 32/52/4 31/51/4

v -4742.05 2190.49 468.529
vt -15.5477 7.18195
f 16/35/4 33/53/4 32/52/4

v -4918.13 1961.02 468.529
vt -16.125 6.42957
f 16/35/4 34/54/4 33/53/4

v -5028.82 1693.79 468.529
vt -16.4879 5.55342
f 16/35/4 35/55/4 34/54/4

v -5066.58 1407.02 468.529
vt -16.6117 4.61318
f 16/35/4 36/56/4 35/55/4

f 16/35/4 17/34/4 36/56/4

v -5028.82 1120.25 6434.53
vt 21.0968 5.79363
vn -0.965926 -0.258819 -9.97323e-032
vt 1.53616 6.74198
vn -1 2.79951e-017 -8.84397e-032
vt 1.53616 5.79363
f 37/57/7 36/58/8 17/59/7

v -5066.58 1407.02 6434.53
vt 21.0968 6.74198
f 36/58/8 37/57/7 38/60/8

vn -8.84397e-032 -5.52748e-032 1
v -2888.33 1120.25 6434.53
vt -9.46994 3.67295
f 37/34/9 39/61/9 38/56/9

v -2999.02 853.02 6434.53
vt -9.83286 2.79679
f 37/34/9 40/62/9 39/61/9

v -4918.13 853.02 6434.53
f 41/36/9 40/62/9 37/34/9

v -4742.05 623.546 6434.53
f 42/37/9 40/62/9 41/36/9

v -3175.1 623.546 6434.53
vt -10.4102 2.04441
f 42/37/9 43/63/9 40/62/9

v -3404.58 447.464 6434.53
vt -11.1625 1.4671
f 42/37/9 44/64/9 43/63/9

v -4512.58 447.464 6434.53
f 45/38/9 44/64/9 42/37/9

v -3671.81 336.774 6434.53
vt -12.0387 1.10418
f 45/38/9 46/65/9 44/64/9

v -4245.35 336.774 6434.53
f 47/39/9 46/65/9 45/38/9

v -3958.58 299.02 6434.53
f 46/65/9 47/39/9 48/40/9

vt 21.0968 13.9442
vn -0.258819 -0.965926 -7.62812e-032
vt 1.53616 12.9959
vn 1.25978e-016 -1 -5.52748e-032
vt 21.0968 12.9959
f 47/66/10 22/67/11 48/68/11

vt 1.53616 13.9442
f 22/67/11 47/66/10 21/69/10

vt 21.0968 14.2305
vn -0.5 -0.866025 -9.20892e-032
vt 1.53616 13.2822
vt 21.0968 13.2822
f 45/70/12 21/71/10 47/72/10

vt 1.53616 14.2305
f 21/71/10 45/70/12 20/73/12

vt 21.0968 13.5794
vn -0.707107 -0.707107 -1.01621e-031
vt 1.53616 12.631
vt 21.0968 12.631
f 42/74/13 20/75/12 45/76/12

vt 1.53616 13.5794
f 20/75/12 42/74/13 19/77/13

vt 21.0968 11.0868
vt 1.53616 12.0351
vn -0.866025 -0.5 -1.04228e-031
vt 1.53616 11.0868
f 42/78/13 18/79/14 19/80/13

vt 21.0968 12.0351
f 18/79/14 42/78/13 41/81/14

vt 21.0968 8.75468
vt 1.53616 9.70302
vt 1.53616 8.75468
f 41/82/14 17/83/7 18/84/14

vt 21.0968 9.70302
f 17/83/7 41/82/14 37/85/7

v -3671.81 336.774 468.529
vt -1.53616 -11.7916
vn 0.258819 -0.965926 -3.05015e-032
vt -21.0968 -12.7399
vt -1.53616 -12.7399
f 49/86/15 48/87/11 22/88/11

vt -21.0968 -11.7916
f 48/87/11 49/86/15 46/89/15

v -3404.58 447.464 468.529
vt -1.53616 -9.75142
vn 0.5 -0.866025 -3.64954e-033
vt -21.0968 -10.6998
vt -1.53616 -10.6998
f 50/90/16 46/91/15 49/92/15

vt -21.0968 -9.75142
f 46/91/15 50/90/16 44/93/16

v -3175.1 623.546 468.529
vt -1.53616 -7.01439
vn 0.707107 -0.707107 2.34511e-032
vt -21.0968 -7.96273
vt -1.53616 -7.96273
f 51/94/17 44/95/16 50/96/16

vt -21.0968 -7.01439
f 44/95/16 51/94/17 43/97/17

vt -1.53616 -4.71537
vt -21.0968 -3.76702
vn 0.866025 -0.5 4.89536e-032
vt -21.0968 -4.71537
f 51/98/17 40/99/18 43/100/17

v -2999.02 853.02 468.529
vt -1.53616 -3.76702
f 40/99/18 51/98/17 52/101/18

v -2315.61 490.167 468.529
vt -7.59216 1.6071
f 51/63/4 53/102/4 52/62/4

f 50/64/4 53/102/4 51/63/4

f 53/102/4 50/64/4 23/41/4

f 49/65/4 23/41/4 50/64/4

f 22/40/4 23/41/4 49/65/4

vt 2.35938 -1.53616
v -2315.61 490.167 1265.53
vt 7.59216 -4.14927
vt 7.59216 -1.53616
f 23/103/1 54/104/1 53/105/1

v -719.61 490.167 1265.53
vt 2.35938 -4.14927
f 54/104/1 23/103/1 55/106/1

vt -1.53616 1.6071
v -719.61 1835.67 1265.53
vt -4.14927 6.01858
vt -4.14927 1.6071
f 23/107/2 56/108/2 55/109/2

vt -1.53616 6.01858
f 56/108/2 23/107/2 24/110/2

vt -7.59216 -1.53616
vt -2.35938 -4.14927
vt -2.35938 -1.53616
f 25/111/3 56/112/3 24/113/3

v -2315.61 1835.67 1265.53
vt -7.59216 -4.14927
f 56/112/3 25/111/3 57/114/3

vt 1.53616 6.01858
vt 4.14927 1.6071
vt 4.14927 6.01858
f 25/115/6 54/116/6 57/117/6

vt 1.53616 1.6071
f 54/116/6 25/115/6 53/118/6

f 52/62/4 53/102/4 25/45/4

v -2888.33 1120.25 468.529
f 52/62/4 25/45/4 58/61/4

v -2850.58 1407.02 468.529
vt -9.34616 4.61318
f 58/61/4 25/45/4 59/119/4

v -2888.33 1693.79 468.529
vt -9.46994 5.55342
f 59/119/4 25/45/4 60/120/4

f 60/120/4 25/45/4 26/46/4

v -2999.02 1961.02 6434.53
vt -21.0968 9.70302
vn 0.866025 0.5 1.04228e-031
vt -1.53616 8.75468
vn 0.965926 0.258819 9.97323e-032
vt -1.53616 9.70302
f 61/121/19 60/122/20 26/123/19

v -2888.33 1693.79 6434.53
vt -21.0968 8.75468
f 60/122/20 61/121/19 62/124/20

v -4918.13 1961.02 6434.53
f 63/54/9 62/120/9 61/46/9

v -5028.82 1693.79 6434.53
f 64/55/9 62/120/9 63/54/9

f 38/56/9 62/120/9 64/55/9

v -2850.58 1407.02 6434.53
f 38/56/9 65/119/9 62/120/9

f 38/56/9 39/61/9 65/119/9

vt -1.53616 2.40545
vn 0.965926 -0.258819 7.112e-032
vt -21.0968 3.3538
vn 1 1.00782e-015 8.84397e-032
vt -21.0968 2.40545
f 58/125/21 65/126/22 39/127/21

vt -1.53616 3.3538
f 65/126/22 58/125/21 59/128/22

vt -1.53616 5.79363
vt -21.0968 6.74198
vt -21.0968 5.79363
f 59/129/22 62/130/20 65/131/22

vt -1.53616 6.74198
f 62/130/20 59/129/22 60/132/20

vt -21.0968 -0.230629
vt -1.53616 -1.17898
vt -1.53616 -0.230629
f 39/133/21 52/134/18 58/135/21

vt -21.0968 -1.17898
f 52/134/18 39/133/21 40/136/18

vt 1.53616 3.3538
vn -0.965926 0.258819 -7.112e-032
vt 21.0968 2.40545
vt 21.0968 3.3538
f 35/137/23 38/138/8 64/139/23

vt 1.53616 2.40545
f 38/138/8 35/137/23 36/140/8

vt 21.0968 -1.17898
vt 1.53616 -0.230629
vn -0.866025 0.5 -4.89536e-032
vt 1.53616 -1.17898
f 64/141/23 34/142/24 35/143/23

vt 21.0968 -0.230629
f 34/142/24 64/141/23 63/144/24

vt 21.0968 -4.71537
vt 1.53616 -3.76702
vn -0.707107 0.707107 -2.34511e-032
vt 1.53616 -4.71537
f 63/145/24 33/146/25 34/147/24

v -4742.05 2190.49 6434.53
vt 21.0968 -3.76702
f 33/146/25 63/145/24 66/148/25

v -3175.1 2190.49 6434.53
f 63/54/9 67/47/9 66/53/9

f 63/54/9 61/46/9 67/47/9

vt -1.53616 11.0868
vt -21.0968 12.0351
vn 0.707107 0.707107 1.01621e-031
vt -21.0968 11.0868
f 26/149/19 67/150/26 61/151/19

vt -1.53616 12.0351
f 67/150/26 26/149/19 27/152/26

vt -1.53616 13.5794
vn 0.5 0.866025 9.20892e-032
vt -21.0968 12.631
vt -1.53616 12.631
f 28/153/27 67/154/26 27/155/26

v -3404.58 2366.58 6434.53
vt -21.0968 13.5794
f 67/154/26 28/153/27 68/156/27

vt -1.53616 14.2305
vn 0.258819 0.965926 7.62812e-032
vt -21.0968 13.2822
vt -1.53616 13.2822
f 29/157/28 68/158/27 28/159/27

v -3671.81 2477.27 6434.53
vt -21.0968 14.2305
f 68/158/27 29/157/28 69/160/28

vt -1.53616 13.9442
vn -8.81845e-016 1 5.52748e-032
vt -21.0968 12.9959
vt -1.53616 12.9959
f 30/161/29 69/162/28 29/163/28

v -3958.58 2515.02 6434.53
vt -21.0968 13.9442
f 69/162/28 30/161/29 70/164/29

vt 1.53616 -12.7399
vn -0.258819 0.965926 3.05015e-032
vt 21.0968 -11.7916
vt 1.53616 -11.7916
f 31/165/30 70/166/29 30/167/29

v -4245.35 2477.27 6434.53
vt 21.0968 -12.7399
f 70/166/29 31/165/30 71/168/30

vt 1.53616 -10.6998
vn -0.5 0.866025 3.64954e-033
vt 21.0968 -9.75142
vt 1.53616 -9.75142
f 32/169/31 71/170/30 31/171/30

v -4512.58 2366.58 6434.53
vt 21.0968 -10.6998
f 71/170/30 32/169/31 72/172/31

vt 1.53616 -7.96273
vt 21.0968 -7.01439
vt 1.53616 -7.01439
f 33/173/25 72/174/31 32/175/31

vt 21.0968 -7.96273
f 72/174/31 33/173/25 66/176/25

f 66/53/9 67/47/9 72/52/9

f 72/52/9 67/47/9 68/48/9

f 72/52/9 68/48/9 71/51/9

f 71/51/9 68/48/9 69/49/9

f 71/51/9 69/49/9 70/50/9

f 54/102/4 56/44/4 57/45/4

f 56/44/4 54/102/4 55/41/4

v -4583.46 2919.5 -363.432
vt -15.0277 1.19158
vt -17.9012 -1.53616
vt 4.489 -1.53616
f 73/177/3 16/178/3 6/179/3

vt -17.9012 16.8343
f 16/178/3 73/177/3 15/180/3

v -4583.46 2919.5 -2277.93
vt -15.0277 7.46863
f 74/181/3 15/180/3 73/177/3

v -958.781 2919.5 -4549.44
vt -3.14355 14.9162
f 75/182/3 15/180/3 74/181/3

v 5.56664 2919.5 -4815.96
vt 0.0182513 15.79
f 76/183/3 15/180/3 75/182/3

vt 4.489 16.8343
f 15/180/3 76/183/3 8/184/3

v 718.554 2919.5 -4114.07
vt 2.35591 13.4888
f 8/184/3 76/183/3 77/185/3

v 5.56664 4615.5 -4815.96
vt 11.0643 15.1328
vn 0.701539 0 -0.712631
vt 7.78399 9.57213
vt 11.0643 9.57213
f 78/186/32 77/187/32 76/188/32

v 718.554 4615.5 -4114.07
vt 7.78399 15.1328
f 77/187/32 78/186/32 79/189/32

v 467.193 4615.5 -3145.66
vt 1.53178 10.3136
f 78/183/3 80/190/3 79/185/3

v -497.155 4615.5 -2879.14
vt -1.63002 9.4398
f 78/183/3 81/191/3 80/190/3

v -958.781 4615.5 -4549.44
f 82/182/3 81/191/3 78/183/3

v -1210.14 4615.5 -3581.03
vt -3.96768 11.7411
f 81/191/3 82/182/3 83/192/3

vt -13.648 15.1328
vn -0.967926 0 -0.251235
v -1210.14 2919.5 -3581.03
vt -10.3677 9.57213
vt -10.3677 15.1328
f 82/193/33 84/194/33 83/195/33

vt -13.648 9.57213
f 84/194/33 82/193/33 75/196/33

vt -0.943525 15.1328
vn -0.266387 0 -0.963866
vt -4.22385 9.57213
vt -0.943525 9.57213
f 82/197/34 76/198/34 75/199/34

vt -4.22385 15.1328
f 76/198/34 82/197/34 78/200/34

f 75/182/3 74/181/3 84/192/3

v -1197.46 2919.5 -2277.93
vt -3.92609 7.46863
f 85/201/3 84/192/3 74/181/3

v -497.155 2919.5 -2879.14
f 84/192/3 85/201/3 86/191/3

f 85/201/3 6/179/3 86/191/3

v -1197.46 2919.5 -363.432
vt -3.92609 1.19158
f 87/202/3 6/179/3 85/201/3

f 73/177/3 6/179/3 87/202/3

v -1197.46 2148 -363.432
vt 3.92609 7.04262
vt 15.0277 9.57213
vt 3.92609 9.57213
f 88/203/5 73/204/5 87/205/5

v -4583.46 2148 -363.432
vt 15.0277 7.04262
f 73/204/5 88/203/5 89/206/5

v -4583.46 2148 -2277.93
f 88/202/3 90/181/3 89/177/3

v -1197.46 2148 -2277.93
f 90/181/3 88/202/3 91/201/3

vt -1.19158 7.04262
vt -7.46863 9.57213
vt -7.46863 7.04262
f 88/207/6 85/208/6 91/209/6

vt -1.19158 9.57213
f 85/208/6 88/207/6 87/210/6

vt -3.92609 9.57213
vt -15.0277 7.04262
vt -3.92609 7.04262
f 85/211/4 90/212/4 91/213/4

vt -15.0277 9.57213
f 90/212/4 85/211/4 74/214/4

vt 1.19158 9.57213
vt 7.46863 7.04262
vt 7.46863 9.57213
f 73/215/2 90/216/2 74/217/2

vt 1.19158 7.04262
f 90/216/2 73/215/2 89/218/2

v 467.193 2919.5 -3145.66
f 86/191/3 6/179/3 92/190/3

f 92/190/3 6/179/3 77/185/3

f 8/184/3 77/185/3 6/179/3

vt 13.648 9.57213
vn 0.967926 0 0.251235
vt 10.3677 15.1328
vt 10.3677 9.57213
f 77/219/35 80/220/35 92/221/35

vt 13.648 15.1328
f 80/220/35 77/219/35 79/222/35

vt 4.22385 15.1328
vn 0.266387 0 0.963866
vt 0.943525 9.57213
vt 4.22385 9.57213
f 80/223/36 86/224/36 92/225/36

vt 0.943525 15.1328
f 86/224/36 80/223/36 81/226/36

vt -7.78399 15.1328
vn -0.701539 0 0.712631
vt -11.0643 9.57213
vt -7.78399 9.57213
f 81/227/37 84/228/37 86/229/37

vt -11.0643 15.1328
f 84/228/37 81/227/37 83/230/37

vt -4.489 6.87727
vt -12.1447 2.34613
vt -4.489 2.34613
f 9/231/5 12/232/5 14/233/5

vt -12.1447 6.87727
f 12/232/5 9/231/5 11/234/5

